<svg xmlns="http://www.w3.org/2000/svg" xmlns:xlink="http://www.w3.org/1999/xlink" style="margin:auto;background:rgba(NaN, NaN, NaN, 0);display:block;z-index:1;position:relative" width="1084" height="320" preserveAspectRatio="xMidYMid" viewBox="0 0 1084 320">
<defs>
  <pattern id="pid-0.5858402686641699" x="0" y="0" width="256" height="256" patternUnits="userSpaceOnUse">
    <g transform="scale(1)"><path d="M 0 0 L 32 0 L 32 32 L 0 32 Z" fill="#ffffff">
  <animate attributeName="fill" begin="-0.7259277074041997s" values="#ffffff;#fff5f5;#ffe7e7;#ffffff;#ffffff;#ffffff" keyTimes="0;0.2;0.4;0.6;0.8;1" dur="1s" repeatCount="indefinite"></animate>
</path><path d="M 0 32 L 32 32 L 32 64 L 0 64 Z" fill="#ffffff">
  <animate attributeName="fill" begin="-0.34158795856204094s" values="#ffffff;#fff5f5;#ffe7e7;#ffffff;#ffffff;#ffffff" keyTimes="0;0.2;0.4;0.6;0.8;1" dur="1s" repeatCount="indefinite"></animate>
</path><path d="M 0 64 L 32 64 L 32 96 L 0 96 Z" fill="#ffffff">
  <animate attributeName="fill" begin="-0.8494568131033884s" values="#ffffff;#fff5f5;#ffe7e7;#ffffff;#ffffff;#ffffff" keyTimes="0;0.2;0.4;0.6;0.8;1" dur="1s" repeatCount="indefinite"></animate>
</path><path d="M 0 96 L 32 96 L 32 128 L 0 128 Z" fill="#ffffff">
  <animate attributeName="fill" begin="-0.13735028224876755s" values="#ffffff;#fff5f5;#ffe7e7;#ffffff;#ffffff;#ffffff" keyTimes="0;0.2;0.4;0.6;0.8;1" dur="1s" repeatCount="indefinite"></animate>
</path><path d="M 0 128 L 32 128 L 32 160 L 0 160 Z" fill="#ffffff">
  <animate attributeName="fill" begin="-0.9863243131564878s" values="#ffffff;#fff5f5;#ffe7e7;#ffffff;#ffffff;#ffffff" keyTimes="0;0.2;0.4;0.6;0.8;1" dur="1s" repeatCount="indefinite"></animate>
</path><path d="M 0 160 L 32 160 L 32 192 L 0 192 Z" fill="#ffffff">
  <animate attributeName="fill" begin="-0.5236807285568577s" values="#ffffff;#fff5f5;#ffe7e7;#ffffff;#ffffff;#ffffff" keyTimes="0;0.2;0.4;0.6;0.8;1" dur="1s" repeatCount="indefinite"></animate>
</path><path d="M 0 192 L 32 192 L 32 224 L 0 224 Z" fill="#ffffff">
  <animate attributeName="fill" begin="-0.4810824400487208s" values="#ffffff;#fff5f5;#ffe7e7;#ffffff;#ffffff;#ffffff" keyTimes="0;0.2;0.4;0.6;0.8;1" dur="1s" repeatCount="indefinite"></animate>
</path><path d="M 0 224 L 32 224 L 32 256 L 0 256 Z" fill="#ffffff">
  <animate attributeName="fill" begin="-0.16965434993063555s" values="#ffffff;#fff5f5;#ffe7e7;#ffffff;#ffffff;#ffffff" keyTimes="0;0.2;0.4;0.6;0.8;1" dur="1s" repeatCount="indefinite"></animate>
</path><path d="M 32 0 L 64 0 L 64 32 L 32 32 Z" fill="#ffffff">
  <animate attributeName="fill" begin="-0.0400312368166964s" values="#ffffff;#fff5f5;#ffe7e7;#ffffff;#ffffff;#ffffff" keyTimes="0;0.2;0.4;0.6;0.8;1" dur="1s" repeatCount="indefinite"></animate>
</path><path d="M 32 32 L 64 32 L 64 64 L 32 64 Z" fill="#ffffff">
  <animate attributeName="fill" begin="-0.17976392029249877s" values="#ffffff;#fff5f5;#ffe7e7;#ffffff;#ffffff;#ffffff" keyTimes="0;0.2;0.4;0.6;0.8;1" dur="1s" repeatCount="indefinite"></animate>
</path><path d="M 32 64 L 64 64 L 64 96 L 32 96 Z" fill="#ffffff">
  <animate attributeName="fill" begin="-0.5390034531124988s" values="#ffffff;#fff5f5;#ffe7e7;#ffffff;#ffffff;#ffffff" keyTimes="0;0.2;0.4;0.6;0.8;1" dur="1s" repeatCount="indefinite"></animate>
</path><path d="M 32 96 L 64 96 L 64 128 L 32 128 Z" fill="#ffffff">
  <animate attributeName="fill" begin="-0.6488155135333968s" values="#ffffff;#fff5f5;#ffe7e7;#ffffff;#ffffff;#ffffff" keyTimes="0;0.2;0.4;0.6;0.8;1" dur="1s" repeatCount="indefinite"></animate>
</path><path d="M 32 128 L 64 128 L 64 160 L 32 160 Z" fill="#ffffff">
  <animate attributeName="fill" begin="-0.7795479187998589s" values="#ffffff;#fff5f5;#ffe7e7;#ffffff;#ffffff;#ffffff" keyTimes="0;0.2;0.4;0.6;0.8;1" dur="1s" repeatCount="indefinite"></animate>
</path><path d="M 32 160 L 64 160 L 64 192 L 32 192 Z" fill="#ffffff">
  <animate attributeName="fill" begin="-0.9839014533944384s" values="#ffffff;#fff5f5;#ffe7e7;#ffffff;#ffffff;#ffffff" keyTimes="0;0.2;0.4;0.6;0.8;1" dur="1s" repeatCount="indefinite"></animate>
</path><path d="M 32 192 L 64 192 L 64 224 L 32 224 Z" fill="#ffffff">
  <animate attributeName="fill" begin="-0.8102463423799051s" values="#ffffff;#fff5f5;#ffe7e7;#ffffff;#ffffff;#ffffff" keyTimes="0;0.2;0.4;0.6;0.8;1" dur="1s" repeatCount="indefinite"></animate>
</path><path d="M 32 224 L 64 224 L 64 256 L 32 256 Z" fill="#ffffff">
  <animate attributeName="fill" begin="-0.8688338896741175s" values="#ffffff;#fff5f5;#ffe7e7;#ffffff;#ffffff;#ffffff" keyTimes="0;0.2;0.4;0.6;0.8;1" dur="1s" repeatCount="indefinite"></animate>
</path><path d="M 64 0 L 96 0 L 96 32 L 64 32 Z" fill="#ffffff">
  <animate attributeName="fill" begin="-0.7626142288737521s" values="#ffffff;#fff5f5;#ffe7e7;#ffffff;#ffffff;#ffffff" keyTimes="0;0.2;0.4;0.6;0.8;1" dur="1s" repeatCount="indefinite"></animate>
</path><path d="M 64 32 L 96 32 L 96 64 L 64 64 Z" fill="#ffffff">
  <animate attributeName="fill" begin="-0.5010700957343901s" values="#ffffff;#fff5f5;#ffe7e7;#ffffff;#ffffff;#ffffff" keyTimes="0;0.2;0.4;0.6;0.8;1" dur="1s" repeatCount="indefinite"></animate>
</path><path d="M 64 64 L 96 64 L 96 96 L 64 96 Z" fill="#ffffff">
  <animate attributeName="fill" begin="-0.6663209097035776s" values="#ffffff;#fff5f5;#ffe7e7;#ffffff;#ffffff;#ffffff" keyTimes="0;0.2;0.4;0.6;0.8;1" dur="1s" repeatCount="indefinite"></animate>
</path><path d="M 64 96 L 96 96 L 96 128 L 64 128 Z" fill="#ffffff">
  <animate attributeName="fill" begin="-0.1674473285963931s" values="#ffffff;#fff5f5;#ffe7e7;#ffffff;#ffffff;#ffffff" keyTimes="0;0.2;0.4;0.6;0.8;1" dur="1s" repeatCount="indefinite"></animate>
</path><path d="M 64 128 L 96 128 L 96 160 L 64 160 Z" fill="#ffffff">
  <animate attributeName="fill" begin="-0.20406147300089517s" values="#ffffff;#fff5f5;#ffe7e7;#ffffff;#ffffff;#ffffff" keyTimes="0;0.2;0.4;0.6;0.8;1" dur="1s" repeatCount="indefinite"></animate>
</path><path d="M 64 160 L 96 160 L 96 192 L 64 192 Z" fill="#ffffff">
  <animate attributeName="fill" begin="-0.7902871168640055s" values="#ffffff;#fff5f5;#ffe7e7;#ffffff;#ffffff;#ffffff" keyTimes="0;0.2;0.4;0.6;0.8;1" dur="1s" repeatCount="indefinite"></animate>
</path><path d="M 64 192 L 96 192 L 96 224 L 64 224 Z" fill="#ffffff">
  <animate attributeName="fill" begin="-0.1540617761747174s" values="#ffffff;#fff5f5;#ffe7e7;#ffffff;#ffffff;#ffffff" keyTimes="0;0.2;0.4;0.6;0.8;1" dur="1s" repeatCount="indefinite"></animate>
</path><path d="M 64 224 L 96 224 L 96 256 L 64 256 Z" fill="#ffffff">
  <animate attributeName="fill" begin="-0.40647322180667467s" values="#ffffff;#fff5f5;#ffe7e7;#ffffff;#ffffff;#ffffff" keyTimes="0;0.2;0.4;0.6;0.8;1" dur="1s" repeatCount="indefinite"></animate>
</path><path d="M 96 0 L 128 0 L 128 32 L 96 32 Z" fill="#ffffff">
  <animate attributeName="fill" begin="-0.19733895634491527s" values="#ffffff;#fff5f5;#ffe7e7;#ffffff;#ffffff;#ffffff" keyTimes="0;0.2;0.4;0.6;0.8;1" dur="1s" repeatCount="indefinite"></animate>
</path><path d="M 96 32 L 128 32 L 128 64 L 96 64 Z" fill="#ffffff">
  <animate attributeName="fill" begin="-0.1349972029561477s" values="#ffffff;#fff5f5;#ffe7e7;#ffffff;#ffffff;#ffffff" keyTimes="0;0.2;0.4;0.6;0.8;1" dur="1s" repeatCount="indefinite"></animate>
</path><path d="M 96 64 L 128 64 L 128 96 L 96 96 Z" fill="#ffffff">
  <animate attributeName="fill" begin="-0.010168441836053033s" values="#ffffff;#fff5f5;#ffe7e7;#ffffff;#ffffff;#ffffff" keyTimes="0;0.2;0.4;0.6;0.8;1" dur="1s" repeatCount="indefinite"></animate>
</path><path d="M 96 96 L 128 96 L 128 128 L 96 128 Z" fill="#ffffff">
  <animate attributeName="fill" begin="-0.6783159438987669s" values="#ffffff;#fff5f5;#ffe7e7;#ffffff;#ffffff;#ffffff" keyTimes="0;0.2;0.4;0.6;0.8;1" dur="1s" repeatCount="indefinite"></animate>
</path><path d="M 96 128 L 128 128 L 128 160 L 96 160 Z" fill="#ffffff">
  <animate attributeName="fill" begin="-0.9672397787820317s" values="#ffffff;#fff5f5;#ffe7e7;#ffffff;#ffffff;#ffffff" keyTimes="0;0.2;0.4;0.6;0.8;1" dur="1s" repeatCount="indefinite"></animate>
</path><path d="M 96 160 L 128 160 L 128 192 L 96 192 Z" fill="#ffffff">
  <animate attributeName="fill" begin="-0.14789348836244498s" values="#ffffff;#fff5f5;#ffe7e7;#ffffff;#ffffff;#ffffff" keyTimes="0;0.2;0.4;0.6;0.8;1" dur="1s" repeatCount="indefinite"></animate>
</path><path d="M 96 192 L 128 192 L 128 224 L 96 224 Z" fill="#ffffff">
  <animate attributeName="fill" begin="-0.14842807862139673s" values="#ffffff;#fff5f5;#ffe7e7;#ffffff;#ffffff;#ffffff" keyTimes="0;0.2;0.4;0.6;0.8;1" dur="1s" repeatCount="indefinite"></animate>
</path><path d="M 96 224 L 128 224 L 128 256 L 96 256 Z" fill="#ffffff">
  <animate attributeName="fill" begin="-0.9301252282449952s" values="#ffffff;#fff5f5;#ffe7e7;#ffffff;#ffffff;#ffffff" keyTimes="0;0.2;0.4;0.6;0.8;1" dur="1s" repeatCount="indefinite"></animate>
</path><path d="M 128 0 L 160 0 L 160 32 L 128 32 Z" fill="#ffffff">
  <animate attributeName="fill" begin="-0.807605745905533s" values="#ffffff;#fff5f5;#ffe7e7;#ffffff;#ffffff;#ffffff" keyTimes="0;0.2;0.4;0.6;0.8;1" dur="1s" repeatCount="indefinite"></animate>
</path><path d="M 128 32 L 160 32 L 160 64 L 128 64 Z" fill="#ffffff">
  <animate attributeName="fill" begin="-0.9823956321301353s" values="#ffffff;#fff5f5;#ffe7e7;#ffffff;#ffffff;#ffffff" keyTimes="0;0.2;0.4;0.6;0.8;1" dur="1s" repeatCount="indefinite"></animate>
</path><path d="M 128 64 L 160 64 L 160 96 L 128 96 Z" fill="#ffffff">
  <animate attributeName="fill" begin="-0.4257983382558721s" values="#ffffff;#fff5f5;#ffe7e7;#ffffff;#ffffff;#ffffff" keyTimes="0;0.2;0.4;0.6;0.8;1" dur="1s" repeatCount="indefinite"></animate>
</path><path d="M 128 96 L 160 96 L 160 128 L 128 128 Z" fill="#ffffff">
  <animate attributeName="fill" begin="-0.8540803551915184s" values="#ffffff;#fff5f5;#ffe7e7;#ffffff;#ffffff;#ffffff" keyTimes="0;0.2;0.4;0.6;0.8;1" dur="1s" repeatCount="indefinite"></animate>
</path><path d="M 128 128 L 160 128 L 160 160 L 128 160 Z" fill="#ffffff">
  <animate attributeName="fill" begin="-0.35733841958926904s" values="#ffffff;#fff5f5;#ffe7e7;#ffffff;#ffffff;#ffffff" keyTimes="0;0.2;0.4;0.6;0.8;1" dur="1s" repeatCount="indefinite"></animate>
</path><path d="M 128 160 L 160 160 L 160 192 L 128 192 Z" fill="#ffffff">
  <animate attributeName="fill" begin="-0.3175036686446766s" values="#ffffff;#fff5f5;#ffe7e7;#ffffff;#ffffff;#ffffff" keyTimes="0;0.2;0.4;0.6;0.8;1" dur="1s" repeatCount="indefinite"></animate>
</path><path d="M 128 192 L 160 192 L 160 224 L 128 224 Z" fill="#ffffff">
  <animate attributeName="fill" begin="-0.2599281411236225s" values="#ffffff;#fff5f5;#ffe7e7;#ffffff;#ffffff;#ffffff" keyTimes="0;0.2;0.4;0.6;0.8;1" dur="1s" repeatCount="indefinite"></animate>
</path><path d="M 128 224 L 160 224 L 160 256 L 128 256 Z" fill="#ffffff">
  <animate attributeName="fill" begin="-0.18585589358011645s" values="#ffffff;#fff5f5;#ffe7e7;#ffffff;#ffffff;#ffffff" keyTimes="0;0.2;0.4;0.6;0.8;1" dur="1s" repeatCount="indefinite"></animate>
</path><path d="M 160 0 L 192 0 L 192 32 L 160 32 Z" fill="#ffffff">
  <animate attributeName="fill" begin="-0.3471455824334839s" values="#ffffff;#fff5f5;#ffe7e7;#ffffff;#ffffff;#ffffff" keyTimes="0;0.2;0.4;0.6;0.8;1" dur="1s" repeatCount="indefinite"></animate>
</path><path d="M 160 32 L 192 32 L 192 64 L 160 64 Z" fill="#ffffff">
  <animate attributeName="fill" begin="-0.44646203751044067s" values="#ffffff;#fff5f5;#ffe7e7;#ffffff;#ffffff;#ffffff" keyTimes="0;0.2;0.4;0.6;0.8;1" dur="1s" repeatCount="indefinite"></animate>
</path><path d="M 160 64 L 192 64 L 192 96 L 160 96 Z" fill="#ffffff">
  <animate attributeName="fill" begin="-0.972882369349652s" values="#ffffff;#fff5f5;#ffe7e7;#ffffff;#ffffff;#ffffff" keyTimes="0;0.2;0.4;0.6;0.8;1" dur="1s" repeatCount="indefinite"></animate>
</path><path d="M 160 96 L 192 96 L 192 128 L 160 128 Z" fill="#ffffff">
  <animate attributeName="fill" begin="-0.14980574562725768s" values="#ffffff;#fff5f5;#ffe7e7;#ffffff;#ffffff;#ffffff" keyTimes="0;0.2;0.4;0.6;0.8;1" dur="1s" repeatCount="indefinite"></animate>
</path><path d="M 160 128 L 192 128 L 192 160 L 160 160 Z" fill="#ffffff">
  <animate attributeName="fill" begin="-0.8537447479758478s" values="#ffffff;#fff5f5;#ffe7e7;#ffffff;#ffffff;#ffffff" keyTimes="0;0.2;0.4;0.6;0.8;1" dur="1s" repeatCount="indefinite"></animate>
</path><path d="M 160 160 L 192 160 L 192 192 L 160 192 Z" fill="#ffffff">
  <animate attributeName="fill" begin="-0.6786543509999465s" values="#ffffff;#fff5f5;#ffe7e7;#ffffff;#ffffff;#ffffff" keyTimes="0;0.2;0.4;0.6;0.8;1" dur="1s" repeatCount="indefinite"></animate>
</path><path d="M 160 192 L 192 192 L 192 224 L 160 224 Z" fill="#ffffff">
  <animate attributeName="fill" begin="-0.3586034984291846s" values="#ffffff;#fff5f5;#ffe7e7;#ffffff;#ffffff;#ffffff" keyTimes="0;0.2;0.4;0.6;0.8;1" dur="1s" repeatCount="indefinite"></animate>
</path><path d="M 160 224 L 192 224 L 192 256 L 160 256 Z" fill="#ffffff">
  <animate attributeName="fill" begin="-0.7517016186007319s" values="#ffffff;#fff5f5;#ffe7e7;#ffffff;#ffffff;#ffffff" keyTimes="0;0.2;0.4;0.6;0.8;1" dur="1s" repeatCount="indefinite"></animate>
</path><path d="M 192 0 L 224 0 L 224 32 L 192 32 Z" fill="#ffffff">
  <animate attributeName="fill" begin="-0.85337427343624s" values="#ffffff;#fff5f5;#ffe7e7;#ffffff;#ffffff;#ffffff" keyTimes="0;0.2;0.4;0.6;0.8;1" dur="1s" repeatCount="indefinite"></animate>
</path><path d="M 192 32 L 224 32 L 224 64 L 192 64 Z" fill="#ffffff">
  <animate attributeName="fill" begin="-0.9903349762892197s" values="#ffffff;#fff5f5;#ffe7e7;#ffffff;#ffffff;#ffffff" keyTimes="0;0.2;0.4;0.6;0.8;1" dur="1s" repeatCount="indefinite"></animate>
</path><path d="M 192 64 L 224 64 L 224 96 L 192 96 Z" fill="#ffffff">
  <animate attributeName="fill" begin="-0.7710409027401346s" values="#ffffff;#fff5f5;#ffe7e7;#ffffff;#ffffff;#ffffff" keyTimes="0;0.2;0.4;0.6;0.8;1" dur="1s" repeatCount="indefinite"></animate>
</path><path d="M 192 96 L 224 96 L 224 128 L 192 128 Z" fill="#ffffff">
  <animate attributeName="fill" begin="-0.3913859561248141s" values="#ffffff;#fff5f5;#ffe7e7;#ffffff;#ffffff;#ffffff" keyTimes="0;0.2;0.4;0.6;0.8;1" dur="1s" repeatCount="indefinite"></animate>
</path><path d="M 192 128 L 224 128 L 224 160 L 192 160 Z" fill="#ffffff">
  <animate attributeName="fill" begin="-0.9592821992717218s" values="#ffffff;#fff5f5;#ffe7e7;#ffffff;#ffffff;#ffffff" keyTimes="0;0.2;0.4;0.6;0.8;1" dur="1s" repeatCount="indefinite"></animate>
</path><path d="M 192 160 L 224 160 L 224 192 L 192 192 Z" fill="#ffffff">
  <animate attributeName="fill" begin="-0.9034692602796217s" values="#ffffff;#fff5f5;#ffe7e7;#ffffff;#ffffff;#ffffff" keyTimes="0;0.2;0.4;0.6;0.8;1" dur="1s" repeatCount="indefinite"></animate>
</path><path d="M 192 192 L 224 192 L 224 224 L 192 224 Z" fill="#ffffff">
  <animate attributeName="fill" begin="-0.10237157760872861s" values="#ffffff;#fff5f5;#ffe7e7;#ffffff;#ffffff;#ffffff" keyTimes="0;0.2;0.4;0.6;0.8;1" dur="1s" repeatCount="indefinite"></animate>
</path><path d="M 192 224 L 224 224 L 224 256 L 192 256 Z" fill="#ffffff">
  <animate attributeName="fill" begin="-0.6770183221336259s" values="#ffffff;#fff5f5;#ffe7e7;#ffffff;#ffffff;#ffffff" keyTimes="0;0.2;0.4;0.6;0.8;1" dur="1s" repeatCount="indefinite"></animate>
</path><path d="M 224 0 L 256 0 L 256 32 L 224 32 Z" fill="#ffffff">
  <animate attributeName="fill" begin="-0.8951267387079265s" values="#ffffff;#fff5f5;#ffe7e7;#ffffff;#ffffff;#ffffff" keyTimes="0;0.2;0.4;0.6;0.8;1" dur="1s" repeatCount="indefinite"></animate>
</path><path d="M 224 32 L 256 32 L 256 64 L 224 64 Z" fill="#ffffff">
  <animate attributeName="fill" begin="-0.2675962508492382s" values="#ffffff;#fff5f5;#ffe7e7;#ffffff;#ffffff;#ffffff" keyTimes="0;0.2;0.4;0.6;0.8;1" dur="1s" repeatCount="indefinite"></animate>
</path><path d="M 224 64 L 256 64 L 256 96 L 224 96 Z" fill="#ffffff">
  <animate attributeName="fill" begin="-0.7243665572431175s" values="#ffffff;#fff5f5;#ffe7e7;#ffffff;#ffffff;#ffffff" keyTimes="0;0.2;0.4;0.6;0.8;1" dur="1s" repeatCount="indefinite"></animate>
</path><path d="M 224 96 L 256 96 L 256 128 L 224 128 Z" fill="#ffffff">
  <animate attributeName="fill" begin="-0.12199531625501847s" values="#ffffff;#fff5f5;#ffe7e7;#ffffff;#ffffff;#ffffff" keyTimes="0;0.2;0.4;0.6;0.8;1" dur="1s" repeatCount="indefinite"></animate>
</path><path d="M 224 128 L 256 128 L 256 160 L 224 160 Z" fill="#ffffff">
  <animate attributeName="fill" begin="-0.8754803269769862s" values="#ffffff;#fff5f5;#ffe7e7;#ffffff;#ffffff;#ffffff" keyTimes="0;0.2;0.4;0.6;0.8;1" dur="1s" repeatCount="indefinite"></animate>
</path><path d="M 224 160 L 256 160 L 256 192 L 224 192 Z" fill="#ffffff">
  <animate attributeName="fill" begin="-0.9412136151648907s" values="#ffffff;#fff5f5;#ffe7e7;#ffffff;#ffffff;#ffffff" keyTimes="0;0.2;0.4;0.6;0.8;1" dur="1s" repeatCount="indefinite"></animate>
</path><path d="M 224 192 L 256 192 L 256 224 L 224 224 Z" fill="#ffffff">
  <animate attributeName="fill" begin="-0.03458894426649484s" values="#ffffff;#fff5f5;#ffe7e7;#ffffff;#ffffff;#ffffff" keyTimes="0;0.2;0.4;0.6;0.8;1" dur="1s" repeatCount="indefinite"></animate>
</path><path d="M 224 224 L 256 224 L 256 256 L 224 256 Z" fill="#ffffff">
  <animate attributeName="fill" begin="-0.9340654719692627s" values="#ffffff;#fff5f5;#ffe7e7;#ffffff;#ffffff;#ffffff" keyTimes="0;0.2;0.4;0.6;0.8;1" dur="1s" repeatCount="indefinite"></animate>
</path></g>
  </pattern>
</defs>
<rect x="0" y="0" width="1084" height="322" fill="url(#pid-0.5858402686641699)"></rect>
</svg>